<svg xml:space="preserve" viewBox="94.208 352.256 1067.008 319.488" version="1.1" xmlns:xlink="http://www.w3.org/1999/xlink" xmlns="http://www.w3.org/2000/svg" style="max-height: 500px" width="1067.008" height="319.488">
<desc>Created with Fabric.js 5.3.0</desc>
<defs>
</defs>
<g id="background-logo" transform="matrix(1 0 0 1 640 512)">
<rect height="1024" width="1280" ry="0" rx="0" y="-512" x="-640" paint-order="stroke" style="stroke: none; stroke-width: 0; stroke-dasharray: none; stroke-linecap: butt; stroke-dashoffset: 0; stroke-linejoin: miter; stroke-miterlimit: 4; fill: rgb(255,255,255); fill-opacity: 0; fill-rule: nonzero; opacity: 1;"/>
</g>
<g id="logo-logo" transform="matrix(1.632475779209118 0 0 1.632475779209118 261.0043749999999 512)">
<g paint-order="stroke" style="">
		<g transform="matrix(0.917930923744532 0 0 0.9179309237445321 0 0)">
<g paint-order="stroke" style="">
		<g transform="matrix(1 0 0 1 0 0)">
<linearGradient y2="200" x2="0" y1="0" x1="0" gradientTransform="matrix(1 0 0 1 -100 -100)" gradientUnits="userSpaceOnUse" id="SVGID_177822_778138">
<stop style="stop-color:rgb(23,234,217);stop-opacity: 1" offset="0%"/>
<stop style="stop-color:rgb(96,120,234);stop-opacity: 1" offset="100%"/>
</linearGradient>
<polygon points="100,100 0,100 0,95.12 95.12,95.12 95.12,-95.12 -95.12,-95.12 -95.12,0 -100,0 -100,-100 100,-100 100,100" paint-order="stroke" style="stroke: none; stroke-width: 1; stroke-dasharray: none; stroke-linecap: butt; stroke-dashoffset: 0; stroke-linejoin: miter; stroke-miterlimit: 4; fill: url(#SVGID_177822_778138); fill-rule: nonzero; opacity: 1;"/>
</g>
</g>
</g>
</g>
</g>
<g id="text-logo" transform="matrix(1.9211538461538462 0 0 1.9211538461538462 814.202546153846 507.1259682551631)">
<g paint-order="stroke" style="">
		<g id="text-logo-path-0" transform="matrix(1 0 0 1 0 0)">
<path stroke-linecap="round" d="M 3.24 -56.7 L 15.15 0 L 23.65 0 L 35.56 -56.7 L 29.89 -56.7 L 19.44 -6.72 L 8.91 -56.7 Z M 75.09 -56.7 L 75.09 0 L 99.39 0 L 99.39 -4.86 L 80.76 -4.86 L 80.76 -25.92 L 94.53 -25.92 L 94.53 -30.78 L 80.76 -30.78 L 80.76 -51.84 L 98.58 -51.84 L 98.58 -56.7 Z M 139.72 -56.7 L 139.72 0 L 159.97 0 L 159.97 -4.86 L 145.4 -4.86 L 145.4 -56.7 Z M 208.41 -56.7 L 195.45 -56.7 L 195.45 -51.84 L 199.1 -51.84 L 199.1 -4.86 L 195.45 -4.86 L 195.45 0 L 208.41 0 L 208.41 -4.86 L 204.77 -4.86 L 204.77 -51.84 L 208.41 -51.84 Z M 255.23 -13.77 L 255.23 -56.7 L 249.56 -56.7 L 249.56 -12.15 C 249.56 -1.3 255.72 0.81 263.33 0.81 C 271.03 0.81 277.1 -1.3 277.1 -12.15 L 277.1 -56.7 L 271.43 -56.7 L 271.43 -13.77 C 271.43 -6.4 268.27 -4.86 263.33 -4.86 C 258.39 -4.86 255.23 -6.4 255.23 -13.77 Z M 356.16 -56.7 L 348.06 -56.7 L 338.42 -22.03 L 328.78 -56.7 L 320.68 -56.7 L 320.68 0 L 326.35 0 L 326.35 -45.04 L 335.5 -12.15 L 341.33 -12.15 L 350.49 -45.04 L 350.49 0 L 356.16 0 Z" transform="translate(-179.70000000000002, 27.945)" paint-order="stroke" style="stroke: rgb(255,255,255); stroke-width: 0; stroke-dasharray: none; stroke-linecap: butt; stroke-dashoffset: 0; stroke-linejoin: miter; stroke-miterlimit: 4; fill: rgb(49,192,223); fill-rule: nonzero; opacity: 1;"/>
</g>
</g>
</g>
<g id="tagline-3a78d944-c0db-44d4-8ad5-60158c925687-logo" transform="matrix(1.9211538461538462 0 0 1.9211538461538462 260.929359960815 515.2640020260892)">
<g paint-order="stroke" style="">
		<g id="tagline-3a78d944-c0db-44d4-8ad5-60158c925687-logo-path-0" transform="matrix(1 0 0 1 0 0)">
<linearGradient y2="64.81848000000005" x2="-2.719999999999999" y1="-12.18151999999995" x1="-2.719999999999999" gradientTransform="matrix(1 0 0 1 2.719999999999999 -47.6)" gradientUnits="userSpaceOnUse" id="SVGID_778139">
<stop style="stop-color:rgb(23,234,217);stop-opacity: 1" offset="0%"/>
<stop style="stop-color:rgb(96,120,234);stop-opacity: 1" offset="100%"/>
</linearGradient>
<path stroke-linecap="round" d="M 2.72 -47.6 L 12.72 0 L 19.86 0 L 29.85 -47.6 L 25.09 -47.6 L 16.32 -5.64 L 7.48 -47.6 Z" transform="translate(-16.285, 23.8)" paint-order="stroke" style="stroke: rgb(255,255,255); stroke-width: 0; stroke-dasharray: none; stroke-linecap: butt; stroke-dashoffset: 0; stroke-linejoin: miter; stroke-miterlimit: 4; fill: url(#SVGID_778139); fill-rule: nonzero; opacity: 1;"/>
</g>
</g>
</g>
</svg>