<?xml version="1.0" encoding="UTF-8" standalone="no" ?>
<!DOCTYPE svg PUBLIC "-//W3C//DTD SVG 1.1//EN" "http://www.w3.org/Graphics/SVG/1.1/DTD/svg11.dtd">
<svg xmlns="http://www.w3.org/2000/svg" xmlns:xlink="http://www.w3.org/1999/xlink" version="1.1" width="1280" height="1024" viewBox="0 0 1280 1024" xml:space="preserve">
<desc>Created with Fabric.js 5.3.0</desc>
<defs>
</defs>
<g transform="matrix(1 0 0 1 640 512)" id="background-logo"  >
<rect style="stroke: none; stroke-width: 0; stroke-dasharray: none; stroke-linecap: butt; stroke-dashoffset: 0; stroke-linejoin: miter; stroke-miterlimit: 4; fill: rgb(255,255,255); fill-opacity: 0; fill-rule: nonzero; opacity: 1;"  paint-order="stroke"  x="-640" y="-512" rx="0" ry="0" width="1280" height="1024" />
</g>
<g transform="matrix(1.9211538461538462 0 0 1.9211538461538462 626.9748622722675 608.7362700207966)" id="text-logo"  >
<g style=""  paint-order="stroke"   >
		<g transform="matrix(1 0 0 1 0 0)" id="text-logo-path-0"  >
<path style="stroke: none; stroke-width: 0.5425531914893617; stroke-dasharray: none; stroke-linecap: butt; stroke-dashoffset: 0; stroke-linejoin: miter; stroke-miterlimit: 4; fill: rgb(0,0,0); fill-rule: nonzero; opacity: 1;"  paint-order="stroke"  transform=" translate(-178.1579190034609, 17.75)" d="M 8.01 0 L 2.24 0 Q 2.04 0 2.04 -0.26 L 2.04 -0.26 L 2.14 -35.29 Q 2.14 -35.5 2.35 -35.5 L 2.35 -35.5 L 8.57 -35.5 Q 8.77 -35.5 8.93 -35.29 L 8.93 -35.29 L 13.57 -28.56 L 18.21 -35.29 Q 18.36 -35.5 18.56 -35.5 L 18.56 -35.5 L 24.84 -35.5 Q 25.04 -35.5 25.04 -35.29 L 25.04 -35.29 L 25.14 -0.26 Q 25.14 0 24.94 0 L 24.94 0 L 19.18 0 Q 18.97 0 18.97 -0.26 L 18.97 -0.26 L 18.92 -26.27 L 13.57 -18.51 L 8.26 -26.27 L 8.21 -0.26 Q 8.21 0 8.01 0 L 8.01 0 Z M 33.76 -0.26 L 33.76 -0.26 L 40.09 -35.29 Q 40.14 -35.5 40.34 -35.5 L 40.34 -35.5 L 47.74 -35.5 Q 47.94 -35.5 47.99 -35.29 L 47.99 -35.29 L 54.06 -0.26 Q 54.11 0 53.86 0 L 53.86 0 L 48.2 0 Q 47.99 0 47.94 -0.26 L 47.94 -0.26 L 47.38 -3.98 L 40.44 -3.98 L 39.88 -0.26 Q 39.83 0 39.63 0 L 39.63 0 L 33.97 0 Q 33.76 0 33.76 -0.26 Z M 43.76 -23.77 L 41.46 -9.44 L 46.36 -9.44 L 44.27 -23.77 L 43.96 -25.65 L 43.76 -23.77 Z M 71.71 0 L 65.84 0 Q 65.69 0 65.69 -0.2 L 65.69 -0.2 L 65.74 -14.69 L 58.91 -35.29 Q 58.85 -35.5 59.06 -35.5 L 59.06 -35.5 L 64.72 -35.5 Q 64.97 -35.5 65.03 -35.29 L 65.03 -35.29 L 68.8 -21.57 L 72.62 -35.29 Q 72.68 -35.5 72.88 -35.5 L 72.88 -35.5 L 78.59 -35.5 Q 78.8 -35.5 78.74 -35.29 L 78.74 -35.29 L 71.86 -14.89 L 71.91 -0.2 Q 71.91 0 71.71 0 L 71.71 0 Z M 98.48 0 L 92.72 0 Q 92.51 0 92.51 -0.26 L 92.51 -0.26 L 92.51 -29.33 L 85.88 -29.33 Q 85.63 -29.33 85.63 -29.58 L 85.63 -29.58 L 85.68 -35.29 Q 85.68 -35.5 85.88 -35.5 L 85.88 -35.5 L 105.26 -35.5 Q 105.52 -35.5 105.52 -35.29 L 105.52 -35.29 L 105.52 -29.58 Q 105.52 -29.33 105.32 -29.33 L 105.32 -29.33 L 98.63 -29.33 L 98.69 -0.26 Q 98.69 0 98.48 0 L 98.48 0 Z M 130.76 0 L 114.29 0 Q 114.09 0 114.09 -0.26 L 114.09 -0.26 L 114.14 -35.29 Q 114.14 -35.5 114.34 -35.5 L 114.34 -35.5 L 130.71 -35.5 Q 130.92 -35.5 130.92 -35.24 L 130.92 -35.24 L 130.92 -29.53 Q 130.92 -29.33 130.71 -29.33 L 130.71 -29.33 L 120.26 -29.33 L 120.26 -21.37 L 130.71 -21.37 Q 130.92 -21.37 130.92 -21.17 L 130.92 -21.17 L 130.97 -15.4 Q 130.97 -15.2 130.76 -15.2 L 130.76 -15.2 L 120.26 -15.2 L 120.26 -6.27 L 130.76 -6.27 Q 130.97 -6.27 130.97 -6.02 L 130.97 -6.02 L 130.97 -0.2 Q 130.97 0 130.76 0 L 130.76 0 Z M 166.06 0 L 160.29 0 Q 160.09 0 160.09 -0.26 L 160.09 -0.26 L 160.09 -29.33 L 153.46 -29.33 Q 153.2 -29.33 153.2 -29.58 L 153.2 -29.58 L 153.26 -35.29 Q 153.26 -35.5 153.46 -35.5 L 153.46 -35.5 L 172.84 -35.5 Q 173.09 -35.5 173.09 -35.29 L 173.09 -35.29 L 173.09 -29.58 Q 173.09 -29.33 172.89 -29.33 L 172.89 -29.33 L 166.21 -29.33 L 166.26 -0.26 Q 166.26 0 166.06 0 L 166.06 0 Z M 198.34 0 L 181.87 0 Q 181.66 0 181.66 -0.26 L 181.66 -0.26 L 181.71 -35.29 Q 181.71 -35.5 181.92 -35.5 L 181.92 -35.5 L 198.29 -35.5 Q 198.49 -35.5 198.49 -35.24 L 198.49 -35.24 L 198.49 -29.53 Q 198.49 -29.33 198.29 -29.33 L 198.29 -29.33 L 187.83 -29.33 L 187.83 -21.37 L 198.29 -21.37 Q 198.49 -21.37 198.49 -21.17 L 198.49 -21.17 L 198.54 -15.4 Q 198.54 -15.2 198.34 -15.2 L 198.34 -15.2 L 187.83 -15.2 L 187.83 -6.27 L 198.34 -6.27 Q 198.54 -6.27 198.54 -6.02 L 198.54 -6.02 L 198.54 -0.2 Q 198.54 0 198.34 0 L 198.34 0 Z M 225.83 0 L 209.36 0 Q 209.15 0 209.15 -0.26 L 209.15 -0.26 L 209.2 -35.24 Q 209.2 -35.5 209.46 -35.5 L 209.46 -35.5 L 215.12 -35.5 Q 215.37 -35.5 215.37 -35.24 L 215.37 -35.24 L 215.32 -6.27 L 225.83 -6.27 Q 226.08 -6.27 226.08 -6.02 L 226.08 -6.02 L 226.08 -0.26 Q 226.08 0 225.83 0 L 225.83 0 Z M 252.14 0 L 235.67 0 Q 235.47 0 235.47 -0.26 L 235.47 -0.26 L 235.52 -35.24 Q 235.52 -35.5 235.77 -35.5 L 235.77 -35.5 L 241.43 -35.5 Q 241.69 -35.5 241.69 -35.24 L 241.69 -35.24 L 241.64 -6.27 L 252.14 -6.27 Q 252.4 -6.27 252.4 -6.02 L 252.4 -6.02 L 252.4 -0.26 Q 252.4 0 252.14 0 L 252.14 0 Z M 278.46 0 L 261.99 0 Q 261.78 0 261.78 -0.26 L 261.78 -0.26 L 261.83 -35.29 Q 261.83 -35.5 262.04 -35.5 L 262.04 -35.5 L 278.41 -35.5 Q 278.61 -35.5 278.61 -35.24 L 278.61 -35.24 L 278.61 -29.53 Q 278.61 -29.33 278.41 -29.33 L 278.41 -29.33 L 267.95 -29.33 L 267.95 -21.37 L 278.41 -21.37 Q 278.61 -21.37 278.61 -21.17 L 278.61 -21.17 L 278.66 -15.4 Q 278.66 -15.2 278.46 -15.2 L 278.46 -15.2 L 267.95 -15.2 L 267.95 -6.27 L 278.46 -6.27 Q 278.66 -6.27 278.66 -6.02 L 278.66 -6.02 L 278.66 -0.2 Q 278.66 0 278.46 0 L 278.46 0 Z M 295.24 0 L 289.48 0 Q 289.27 0 289.27 -0.26 L 289.27 -0.26 L 289.37 -35.29 Q 289.37 -35.5 289.58 -35.5 L 289.58 -35.5 L 299.88 -35.5 Q 302.63 -35.5 304.95 -34.14 Q 307.28 -32.79 308.65 -30.52 Q 310.03 -28.25 310.03 -25.4 L 310.03 -25.4 Q 310.03 -23.51 309.47 -22.01 Q 308.91 -20.5 308.14 -19.46 Q 307.38 -18.41 306.77 -17.9 L 306.77 -17.9 Q 309.52 -14.84 309.52 -10.71 L 309.52 -10.71 L 309.57 -0.26 Q 309.57 0 309.32 0 L 309.32 0 L 303.55 0 Q 303.35 0 303.35 -0.15 L 303.35 -0.15 L 303.35 -10.71 Q 303.35 -12.55 302.05 -13.9 Q 300.75 -15.25 298.86 -15.25 L 298.86 -15.25 L 295.49 -15.25 L 295.44 -0.26 Q 295.44 0 295.24 0 L 295.24 0 Z M 295.49 -29.38 L 295.49 -21.37 L 299.88 -21.37 Q 301.46 -21.37 302.69 -22.54 Q 303.91 -23.72 303.91 -25.4 L 303.91 -25.4 Q 303.91 -27.03 302.71 -28.2 Q 301.51 -29.38 299.88 -29.38 L 299.88 -29.38 L 295.49 -29.38 Z M 325.94 0 L 320.18 0 Q 319.92 0 319.92 -0.26 L 319.92 -0.26 L 319.97 -35.29 Q 319.97 -35.5 320.18 -35.5 L 320.18 -35.5 L 325.89 -35.5 Q 326.09 -35.5 326.09 -35.29 L 326.09 -35.29 L 326.15 -0.26 Q 326.15 0 325.94 0 L 325.94 0 Z M 333.95 -0.26 L 333.95 -0.26 L 340.27 -35.29 Q 340.32 -35.5 340.53 -35.5 L 340.53 -35.5 L 347.92 -35.5 Q 348.13 -35.5 348.18 -35.29 L 348.18 -35.29 L 354.25 -0.26 Q 354.3 0 354.04 0 L 354.04 0 L 348.38 0 Q 348.18 0 348.13 -0.26 L 348.13 -0.26 L 347.57 -3.98 L 340.63 -3.98 L 340.07 -0.26 Q 340.02 0 339.81 0 L 339.81 0 L 334.15 0 Q 333.95 0 333.95 -0.26 Z M 343.94 -23.77 L 341.65 -9.44 L 346.55 -9.44 L 344.45 -23.77 L 344.15 -25.65 L 343.94 -23.77 Z" stroke-linecap="round" />
</g>
</g>
</g>
<g transform="matrix(1.9211538461538462 0 0 1.9211538461538462 640.226501214575 700.8318065191601)" id="tagline-0a54f8c7-56e2-4908-9c5e-b8e1a8c1493d-logo"  >
<g style=""  paint-order="stroke"   >
		<g transform="matrix(1 0 0 1 0 0)" id="tagline-0a54f8c7-56e2-4908-9c5e-b8e1a8c1493d-logo-path-0"  >
<path style="stroke: none; stroke-width: 0; stroke-dasharray: none; stroke-linecap: butt; stroke-dashoffset: 0; stroke-linejoin: miter; stroke-miterlimit: 4; fill: rgb(0,0,0); fill-rule: nonzero; opacity: 1;"  paint-order="stroke"  transform=" translate(-150.065, 11.01)" d="M 17.18 -6.11 Q 17.18 -4.19 16.22 -2.74 Q 15.26 -1.28 13.44 -0.46 Q 11.62 0.35 9.12 0.35 L 9.12 0.35 Q 6.72 0.35 4.75 -0.37 Q 2.78 -1.09 1.38 -2.43 L 1.38 -2.43 L 3.04 -4.32 Q 4.26 -3.17 5.74 -2.56 Q 7.23 -1.95 9.15 -1.95 L 9.15 -1.95 Q 11.33 -1.95 12.8 -3.01 Q 14.27 -4.06 14.27 -6.05 L 14.27 -6.05 Q 14.27 -7.17 13.86 -7.9 Q 13.44 -8.64 12.4 -9.22 Q 11.36 -9.79 9.47 -10.34 L 9.47 -10.34 Q 5.89 -11.39 4.13 -12.82 Q 2.37 -14.24 2.37 -16.7 L 2.37 -16.7 Q 2.37 -18.34 3.26 -19.65 Q 4.16 -20.96 5.79 -21.68 Q 7.42 -22.4 9.5 -22.4 L 9.5 -22.4 Q 11.68 -22.4 13.39 -21.76 Q 15.1 -21.12 16.54 -19.87 L 16.54 -19.87 L 14.88 -18.08 Q 12.61 -20.06 9.6 -20.06 L 9.6 -20.06 Q 7.68 -20.06 6.43 -19.23 Q 5.18 -18.4 5.18 -16.8 L 5.18 -16.8 Q 5.18 -15.84 5.7 -15.17 Q 6.21 -14.5 7.39 -13.92 Q 8.58 -13.34 10.72 -12.74 L 10.72 -12.74 Q 13.82 -11.84 15.5 -10.4 Q 17.18 -8.96 17.18 -6.11 L 17.18 -6.11 Z M 35.33 0 L 35.33 -10.46 L 27.01 -10.46 L 27.01 0 L 24.22 0 L 24.22 -22.05 L 27.01 -22.05 L 27.01 -12.74 L 35.33 -12.74 L 35.33 -22.05 L 38.11 -22.05 L 38.11 0 L 35.33 0 Z M 60.83 -11.01 Q 60.83 -5.86 58.74 -2.75 Q 56.64 0.35 52.74 0.35 L 52.74 0.35 Q 48.8 0.35 46.72 -2.69 Q 44.64 -5.73 44.64 -10.98 L 44.64 -10.98 Q 44.64 -14.34 45.57 -16.93 Q 46.5 -19.52 48.32 -20.96 Q 50.14 -22.4 52.74 -22.4 L 52.74 -22.4 Q 56.64 -22.4 58.74 -19.31 Q 60.83 -16.22 60.83 -11.01 L 60.83 -11.01 Z M 57.95 -11.01 Q 57.95 -15.52 56.7 -17.79 Q 55.46 -20.06 52.74 -20.06 L 52.74 -20.06 Q 50.02 -20.06 48.77 -17.78 Q 47.52 -15.49 47.52 -10.98 L 47.52 -10.98 Q 47.52 -6.5 48.78 -4.24 Q 50.05 -1.98 52.74 -1.98 L 52.74 -1.98 Q 55.46 -1.98 56.7 -4.24 Q 57.95 -6.5 57.95 -11.01 L 57.95 -11.01 Z M 83.74 -22.05 L 80.42 0 L 76.77 0 L 74.24 -16.64 L 71.68 0 L 67.94 0 L 64.86 -22.05 L 67.65 -22.05 L 69.98 -3.04 L 72.64 -19.49 L 76.03 -19.49 L 78.56 -3.04 L 81.18 -22.05 L 83.74 -22.05 Z M 102.18 -22.05 L 102.18 -7.33 Q 102.18 -4.1 100.4 -1.86 Q 98.62 0.38 94.62 0.38 L 94.62 0.38 Q 92.99 0.38 91.44 -0.13 Q 89.89 -0.64 88.61 -1.63 L 88.61 -1.63 L 89.82 -3.46 Q 92.22 -1.95 94.59 -1.95 L 94.59 -1.95 Q 96.9 -1.95 98.14 -3.41 Q 99.39 -4.86 99.39 -7.46 L 99.39 -7.46 L 99.39 -19.78 L 92.86 -19.78 L 92.86 -22.05 L 102.18 -22.05 Z M 124.74 -22.05 L 124.74 -7.14 Q 124.74 -4.93 123.82 -3.22 Q 122.91 -1.5 121.26 -0.58 Q 119.62 0.35 117.41 0.35 L 117.41 0.35 Q 115.17 0.35 113.54 -0.59 Q 111.9 -1.54 111.02 -3.23 Q 110.14 -4.93 110.14 -7.14 L 110.14 -7.14 L 110.14 -22.05 L 112.93 -22.05 L 112.93 -7.04 Q 112.93 -4.54 114.08 -3.3 Q 115.23 -2.05 117.41 -2.05 L 117.41 -2.05 Q 119.58 -2.05 120.75 -3.3 Q 121.92 -4.54 121.92 -7.04 L 121.92 -7.04 L 121.92 -22.05 L 124.74 -22.05 Z M 146.4 -22.05 L 147.65 0 L 144.96 0 L 144.29 -11.52 Q 144.1 -14.56 144.1 -19.49 L 144.1 -19.49 L 140.38 -3.97 L 137.6 -3.97 L 133.63 -19.49 Q 133.7 -18.34 133.7 -16.42 L 133.7 -16.42 Q 133.7 -13.47 133.57 -11.52 L 133.57 -11.52 L 132.99 0 L 130.37 0 L 131.62 -22.05 L 135.49 -22.05 L 139.07 -6.94 L 142.5 -22.05 L 146.4 -22.05 Z M 168.8 -15.26 Q 168.8 -11.58 166.53 -9.89 Q 164.26 -8.19 160.29 -8.19 L 160.29 -8.19 L 157.44 -8.19 L 157.44 0 L 154.69 0 L 154.69 -22.05 L 160.29 -22.05 Q 164.35 -22.05 166.58 -20.35 Q 168.8 -18.66 168.8 -15.26 L 168.8 -15.26 Z M 165.82 -15.23 Q 165.82 -17.63 164.43 -18.74 Q 163.04 -19.84 160.64 -19.84 L 160.64 -19.84 L 157.44 -19.84 L 157.44 -10.4 L 160.54 -10.4 Q 163.04 -10.4 164.43 -11.49 Q 165.82 -12.58 165.82 -15.23 L 165.82 -15.23 Z M 211.3 -15.84 Q 211.3 -13.47 209.82 -11.92 Q 208.35 -10.37 205.92 -9.76 L 205.92 -9.76 L 212.48 0 L 209.15 0 L 203.1 -9.44 L 200.13 -9.44 L 200.13 0 L 197.38 0 L 197.38 -22.05 L 203.01 -22.05 Q 207.1 -22.05 209.2 -20.48 Q 211.3 -18.91 211.3 -15.84 L 211.3 -15.84 Z M 208.35 -15.84 Q 208.35 -17.95 207.14 -18.88 Q 205.92 -19.81 203.33 -19.81 L 203.33 -19.81 L 200.13 -19.81 L 200.13 -11.62 L 203.36 -11.62 Q 205.82 -11.62 207.09 -12.62 Q 208.35 -13.63 208.35 -15.84 L 208.35 -15.84 Z M 231.58 -22.05 L 231.58 -19.81 L 226.69 -19.81 L 226.69 -2.21 L 231.58 -2.21 L 231.58 0 L 218.98 0 L 218.98 -2.21 L 223.87 -2.21 L 223.87 -19.81 L 218.98 -19.81 L 218.98 -22.05 L 231.58 -22.05 Z M 254.94 -11.14 Q 254.94 -4.86 252.06 -2.43 Q 249.18 0 244.96 0 L 244.96 0 L 239.9 0 L 239.9 -22.05 L 244.61 -22.05 Q 249.25 -22.05 252.1 -19.71 Q 254.94 -17.38 254.94 -11.14 L 254.94 -11.14 Z M 251.97 -11.14 Q 251.97 -14.72 250.99 -16.62 Q 250.02 -18.53 248.58 -19.15 Q 247.14 -19.78 245.28 -19.78 L 245.28 -19.78 L 242.69 -19.78 L 242.69 -2.24 L 245.31 -2.24 Q 248.16 -2.24 250.06 -4.21 Q 251.97 -6.18 251.97 -11.14 L 251.97 -11.14 Z M 265.6 -19.74 L 265.6 -12.32 L 273.79 -12.32 L 273.79 -10.05 L 265.6 -10.05 L 265.6 -2.24 L 275.65 -2.24 L 275.65 0 L 262.85 0 L 262.85 -22.05 L 275.36 -22.05 L 275.04 -19.74 L 265.6 -19.74 Z M 297.57 -15.84 Q 297.57 -13.47 296.1 -11.92 Q 294.62 -10.37 292.19 -9.76 L 292.19 -9.76 L 298.75 0 L 295.42 0 L 289.38 -9.44 L 286.4 -9.44 L 286.4 0 L 283.65 0 L 283.65 -22.05 L 289.28 -22.05 Q 293.38 -22.05 295.47 -20.48 Q 297.57 -18.91 297.57 -15.84 L 297.57 -15.84 Z M 294.62 -15.84 Q 294.62 -17.95 293.41 -18.88 Q 292.19 -19.81 289.6 -19.81 L 289.6 -19.81 L 286.4 -19.81 L 286.4 -11.62 L 289.63 -11.62 Q 292.1 -11.62 293.36 -12.62 Q 294.62 -13.63 294.62 -15.84 L 294.62 -15.84 Z" stroke-linecap="round" />
</g>
</g>
</g>
<g transform="matrix(1.9211538461538462 0 0 1.9211538461538462 639.7039473684212 331.0526315789474)" id="shape-b4349245-6f4a-4bf4-af3d-9f944f001247"  >
<g style=""  paint-order="stroke"   >
		<g transform="matrix(1 0 0 1 0 0)" id="Layer_1"  >
<rect style="stroke: none; stroke-width: 0; stroke-dasharray: none; stroke-linecap: butt; stroke-dashoffset: 0; stroke-linejoin: miter; stroke-miterlimit: 4; fill: rgb(0,0,0); fill-rule: nonzero; opacity: 1;"  paint-order="stroke"  x="-100" y="-100" rx="0" ry="0" width="200" height="200" />
</g>
</g>
</g>
<g transform="matrix(1.9211538461538462 0 0 1.9211538461538462 564.8077604255137 323.93821465587047)" id="tagline-a9171d9e-0dea-4792-aba0-97397e541c94-logo"  >
<g style=""  paint-order="stroke"   >
		<g transform="matrix(1 0 0 1 0 0)" id="tagline-a9171d9e-0dea-4792-aba0-97397e541c94-logo-path-0"  >
<path style="stroke: none; stroke-width: 0; stroke-dasharray: none; stroke-linecap: butt; stroke-dashoffset: 0; stroke-linejoin: miter; stroke-miterlimit: 4; fill: rgb(255,255,255); fill-rule: nonzero; opacity: 1;"  paint-order="stroke"  transform=" translate(-50.519999999999996, 41.4)" d="M 2.4 -1.2 L 2.4 0 L 25.44 0 L 25.44 -1.2 C 21.12 -1.2 16.32 -2.04 16.32 -6.6 L 16.32 -66.84 L 41.52 0 L 46.32 0 L 72.72 -70.08 L 72.72 -6.6 C 72.72 -2.04 67.92 -1.2 63.6 -1.2 L 63.6 0 L 98.64 0 L 98.64 -1.2 C 94.32 -1.2 89.52 -2.04 89.52 -6.6 L 89.52 -76.2 C 89.52 -80.76 94.32 -81.6 98.64 -81.6 L 98.64 -82.8 L 72.72 -82.8 L 50.52 -24 L 28.32 -82.8 L 2.4 -82.8 L 2.4 -81.6 C 6.72 -81.6 11.52 -80.76 11.52 -76.2 L 11.52 -6.6 C 11.52 -2.04 6.72 -1.2 2.4 -1.2 Z" stroke-linecap="round" />
</g>
</g>
</g>
<g transform="matrix(1.9211538461538462 0 0 1.9211538461538462 741.4578530616221 322.7855223481781)" id="tagline-5b36075a-4e5c-48be-96ad-504fba2a0bac-logo"  >
<g style=""  paint-order="stroke"   >
		<g transform="matrix(1 0 0 1 0 0)" id="tagline-5b36075a-4e5c-48be-96ad-504fba2a0bac-logo-path-0"  >
<path style="stroke: none; stroke-width: 0; stroke-dasharray: none; stroke-linecap: butt; stroke-dashoffset: 0; stroke-linejoin: miter; stroke-miterlimit: 4; fill: rgb(255,255,255); fill-rule: nonzero; opacity: 1;"  paint-order="stroke"  transform=" translate(-41.4, 42)" d="M 23.88 -1.2 L 23.88 0 L 58.92 0 L 58.92 -1.2 C 54.6 -1.2 49.8 -2.04 49.8 -6.6 L 49.8 -78.6 C 60.36 -78.6 68.4 -70.2 76.32 -70.2 C 76.08 -75.6 75.84 -78.6 80.4 -84 C 77.04 -84 72.84 -82.8 69.6 -82.8 L 13.2 -82.8 C 9.96 -82.8 5.76 -84 2.4 -84 C 6.96 -78.6 6.72 -75.6 6.48 -70.2 C 14.4 -70.2 22.44 -78.6 33 -78.6 L 33 -6.6 C 33 -2.04 28.2 -1.2 23.88 -1.2 Z" stroke-linecap="round" />
</g>
</g>
</g>
</svg>